PathFileType	4	(X/Y/Z)	/Users/niels/Desktop/University/Third Semester/Perception and Action/Exam/Gymnastics Motion Tracking/Code for Gym Tracking/Analyzed Data/Webcam_Backflip/id7_1_baseline_Sports2D/id7_1_baseline_Sports2D_px_person00.trc
DataRate	CameraRate	NumFrames	NumMarkers	Units	OrigDataRate	OrigDataStartFrame	OrigNumFrames
29.80392156862745	29.80392156862745	7	22	m	29.80392156862745	19	153
Frame#	Time	Hip			RHip			RKnee			RAnkle			RBigToe			RSmallToe			RHeel			LHip			LKnee			LAnkle			LBigToe			LSmallToe			LHeel			Neck			Head			Nose			RShoulder			RElbow			RWrist			LShoulder			LElbow			LWrist		
		X1	Y1	Z1	X2	Y2	Z2	X3	Y3	Z3	X4	Y4	Z4	X5	Y5	Z5	X6	Y6	Z6	X7	Y7	Z7	X8	Y8	Z8	X9	Y9	Z9	X10	Y10	Z10	X11	Y11	Z11	X12	Y12	Z12	X13	Y13	Z13	X14	Y14	Z14	X15	Y15	Z15	X16	Y16	Z16	X17	Y17	Z17	X18	Y18	Z18	X19	Y19	Z19	X20	Y20	Z20	X21	Y21	Z21	X22	Y22	Z22
19	0.6375	0.9083237597421923	-0.5775623438979648	0.0	0.9131609687321375	-0.5773723488094622	0.0	0.9998586481358789	-0.6540056677653489	0.0	0.9792695824834171	-0.7623497219580674	0.0	1.021390497809044	-0.7731749748977559	0.0	1.0160975638424543	-0.7765881740464492	0.0	0.968533377916175	-0.7742122909926311	0.0	0.9039380043439007	-0.5771945272529787	0.0	0.9766588352032681	-0.6588198486165305	0.0	0.9612104655971259	-0.7585500448204588	0.0	1.0076343721103271	-0.7668985087134932	0.0	0.9975780688513725	-0.7605029715297265	0.0	0.9515336935732902	-0.7677610097104307	0.0	0.9852163195987351	-0.4629924947024381	0.0	1.0339686751387722	-0.41310391843823335	0.0	1.0264740590176675	-0.4511790801263806	0.0	0.9838444612351195	-0.46862973606756675	0.0	1.0379277585485325	-0.49684268279356436	0.0	1.0996706998590786	-0.503159154506806	0.0	0.9690596116739533	-0.4660585000221544	0.0	0.9866558949407283	-0.5101737835118789	0.0	1.0191526255987082	-0.5123735786023481	0.0
20	0.6710526315789473	0.9026652217955076	-0.5507051382407784	0.0	0.9060430304315215	-0.5502326381871416	0.0	0.9933120213422736	-0.6282496423187486	0.0	0.9766182641913337	-0.7390823122214526	0.0	1.0182710177993475	-0.7521238344365593	0.0	1.0126050365250632	-0.755426917247718	0.0	0.9663250547865982	-0.751486585177384	0.0	0.8990256379921185	-0.5501976261315996	0.0	0.9726260501395492	-0.6325717895013122	0.0	0.961332188397047	-0.7342871610438314	0.0	1.008787298619229	-0.7434950015857025	0.0	0.9994990601658571	-0.7371824387344317	0.0	0.9515423866554871	-0.7448391022960945	0.0	0.9768680362078335	-0.435483169390927	0.0	1.0267993226041205	-0.3857633427046183	0.0	1.0183905107926776	-0.423402058831011	0.0	0.9748957244385387	-0.4401047949937435	0.0	1.0286112464193267	-0.47007990097503116	0.0	1.0901518124219038	-0.48005593908521915	0.0	0.9613996080490076	-0.43829598369821826	0.0	0.9806596408513971	-0.4845477042587742	0.0	1.0129731438577414	-0.49086147090293913	0.0
21	0.7046052631578947	0.8984859629576867	-0.5265401473610202	0.0	0.8999780148918595	-0.5257847916419799	0.0	0.9845811406523158	-0.6077718087379859	0.0	0.9713656631381637	-0.7205246953394756	0.0	1.0119982264261085	-0.7364495246639616	0.0	1.005735557278755	-0.7397247236384291	0.0	0.9616445155159068	-0.7333234645843493	0.0	0.8958524658058973	-0.5258023686880554	0.0	0.9676244223583577	-0.6108661597616408	0.0	0.9607657259753418	-0.713629883519852	0.0	1.0080587168997122	-0.7233985692589733	0.0	0.9995474205195994	-0.7173574815811866	0.0	0.9509810769370454	-0.7253533410759302	0.0	0.9676948863401676	-0.4089131424060147	0.0	1.0176843234747464	-0.3580546932037912	0.0	1.0095520195695777	-0.39539054616108793	0.0	0.9653207734087068	-0.4130264724242764	0.0	1.0195116278004936	-0.4422779047310629	0.0	1.0802345218290133	-0.45171634770870034	0.0	0.9524889898809831	-0.41154726491843824	0.0	0.9678757095738383	-0.4571686044885828	0.0	0.997766036215287	-0.46308907386791526	0.0
22	0.7381578947368421	0.8957030515522402	-0.5062217419923858	0.0	0.8951618082767132	-0.5051651128755743	0.0	0.9741579082143328	-0.5926771080887161	0.0	0.9628962001569895	-0.7068343882158684	0.0	1.0019529483826661	-0.7262777628812201	0.0	0.9948641403019736	-0.7294306145794658	0.0	0.9536648768911606	-0.7197744914185069	0.0	0.8943415046709459	-0.5051262775816433	0.0	0.961993498568126	-0.5939613333175078	0.0	0.9591261025055855	-0.6970238329186974	0.0	1.0056478850565365	-0.7072148385747489	0.0	0.9979295631612084	-0.7016028926306354	0.0	0.9495575476963712	-0.7095731528878051	0.0	0.9579008021149368	-0.384792783593513	0.0	1.0066426833558126	-0.3316650242216324	0.0	0.9999927134789186	-0.3688293392225428	0.0	0.9555152880379087	-0.388937213845377	0.0	1.010669095856435	-0.41492005214886535	0.0	1.070164901635482	-0.42005846706507544	0.0	0.9425169328703815	-0.3873186310530559	0.0	0.9485352313519277	-0.4303462405439557	0.0	0.9741804981156502	-0.43219178672937986	0.0
23	0.7717105263157895	0.8940214209921094	-0.49026746692981094	0.0	0.8917018925533817	-0.4888716086385026	0.0	0.9626508736950506	-0.582375616129872	0.0	0.9511565761364981	-0.6973895786258166	0.0	0.9879057679056074	-0.7208713697964886	0.0	0.9798546647964785	-0.7236528779325544	0.0	0.9420979361484715	-0.7101972938332373	0.0	0.8940592912545917	-0.4886550905349968	0.0	0.9561092546253824	-0.5814372406095378	0.0	0.9563223246966794	-0.6844441060966331	0.0	1.0020274353959693	-0.6951160578244887	0.0	0.9951893482932623	-0.6900223224478919	0.0	0.9471394458427624	-0.6974516319323465	0.0	0.9476480303295879	-0.36416797539498663	0.0	0.9940808060125643	-0.3080485857142887	0.0	0.9897054980008824	-0.345261489079132	0.0	0.9456864775971994	-0.36872527503597174	0.0	1.001786927927689	-0.38890599689103894	0.0	1.0596715604888636	-0.3870335096904155	0.0	0.9318070011755323	-0.36673120298442813	0.0	0.9254838875308945	-0.4060924022285759	0.0	0.9464232545506681	-0.40141436436992867	0.0
24	0.8052631578947369	0.8930556085993148	-0.4787769730644776	0.0	0.8895371797147599	-0.4769928949418887	0.0	0.9505802145450915	-0.5761550950635724	0.0	0.9365826270875052	-0.6914436774553239	0.0	0.9701190776972689	-0.7192104822613706	0.0	0.9611684541950151	-0.7213120062265037	0.0	0.9272346560782405	-0.7038597625264619	0.0	0.8944744169185285	-0.47648269757151596	0.0	0.9504719412323377	-0.5726752945117632	0.0	0.9525382551924466	-0.6757495408699955	0.0	0.9976145485748044	-0.6872274447558863	0.0	0.9917665827192089	-0.6826355017537564	0.0	0.9436513632855231	-0.6890305783187047	0.0	0.9370959741095061	-0.3476981682806524	0.0	0.9806205826469376	-0.2882855641816512	0.0	0.9787495427873383	-0.32587681276103425	0.0	0.9358353371589697	-0.35288130716635396	0.0	0.9924356025672988	-0.3647843230481093	0.0	1.0481732667486552	-0.3545143014319107	0.0	0.9207740014189051	-0.3506316652551639	0.0	0.9034550855009617	-0.3854446709435306	0.0	0.9206622475109941	-0.37319542416999846	0.0
25	0.8388157894736842	0.8924161506272631	-0.47161852101856194	0.0	0.8883381389004582	-0.46942255244688175	0.0	0.9383184962920696	-0.5734939943360157	0.0	0.9199477941929715	-0.6885040923426409	0.0	0.9494819299803826	-0.7203552454916105	0.0	0.9399242577519039	-0.7215208865630287	0.0	0.9098895365653589	-0.7003369703765729	0.0	0.8952052043931845	-0.4685397170111539	0.0	0.9456618478256665	-0.5672215711217455	0.0	0.9480164208954114	-0.6708189809591822	0.0	0.992436897730954	-0.6834904140584857	0.0	0.9876730361552094	-0.6793383120629317	0.0	0.9389976814861691	-0.6844092470564183	0.0	0.9264713145510398	-0.3357355182020488	0.0	0.9668454534258787	-0.2730627971731628	0.0	0.9672823658997992	-0.31127252817124934	0.0	0.9259212969215144	-0.3417070262614982	0.0	0.9823182757953123	-0.3431374460163965	0.0	1.0351486507666376	-0.3242648708925041	0.0	0.909827599313131	-0.33951707870933023	0.0	0.886186297527678	-0.3682299081811386	0.0	0.901439399813594	-0.3484756446436957	0.0
